<?xml version="1.0" encoding="UTF-8"?>
<svg version="1.1" xmlns="http://www.w3.org/2000/svg" width="192" height="192">
<path d="M0 0 C63.36 0 126.72 0 192 0 C192 63.36 192 126.72 192 192 C128.64 192 65.28 192 0 192 C0 128.64 0 65.28 0 0 Z " fill="#FEFEFE" transform="translate(0,0)"/>
<path d="M0 0 C17.16683186 5.70006737 34.73989557 8.11078229 52.71484375 9.578125 C52.71484375 9.908125 52.71484375 10.238125 52.71484375 10.578125 C32.52070986 10.96077548 13.30623533 10.76337738 -6.40625 5.8203125 C-35.81196049 -1.49992358 -62.49689294 -3.38573339 -89.53759766 12.52099609 C-97.09989736 17.09556409 -104.30665716 22.1595257 -111.28515625 27.578125 C-110.61871094 27.93003906 -109.95226562 28.28195313 -109.265625 28.64453125 C-99.45159215 33.90155864 -90.38308616 39.58605249 -81.73046875 46.59765625 C-80.92351562 47.25121094 -80.1165625 47.90476563 -79.28515625 48.578125 C-78.51945312 49.20074219 -77.75375 49.82335937 -76.96484375 50.46484375 C-63.85421179 60.43844331 -49.29042624 62.26005502 -33.28515625 60.578125 C-28.62625331 59.79093106 -24.10003967 58.64553697 -19.55859375 57.35546875 C-16.28515625 56.578125 -16.28515625 56.578125 -13.28515625 57.578125 C-31.0056949 66.04125706 -49.66975746 71.83324799 -69.19921875 65.43359375 C-71.75033203 64.38735066 -73.99225892 63.10672322 -76.28515625 61.578125 C-77.31253906 61.17980469 -78.33992188 60.78148437 -79.3984375 60.37109375 C-84.02899882 58.42119426 -87.75301586 55.42339901 -91.72265625 52.390625 C-103.27704708 43.79671735 -115.75183534 36.32212351 -130.28515625 34.578125 C-122.92573496 16.74088358 -94.51176656 0.06223391 -77.28515625 -7.421875 C-50.69022944 -18.08380512 -25.83687086 -8.639107 0 0 Z " fill="#207393" transform="translate(134.28515625,68.421875)"/>
<path d="M0 0 C6.58311138 4.03350472 12.98718598 9.441211 14.90625 17.16796875 C16.02452921 26.15721314 15.3709393 33.75822055 9.90625 41.16796875 C4.50717335 47.24624694 -1.07299002 50.59435176 -9.13671875 51.515625 C-17.7809479 51.91084767 -24.34570194 50.31245138 -30.9375 44.55859375 C-37.52737032 37.51647743 -38.74940136 30.11432977 -38.49609375 20.640625 C-37.61088981 13.00036967 -34.51659555 7.98337073 -28.59375 3.16796875 C-20.43135721 -2.81012174 -9.41315453 -4.24788541 0 0 Z " fill="#3EC2DA" transform="translate(96.09375,72.83203125)"/>
<path d="M0 0 C1.38604137 0.02013226 2.77211158 0.03837094 4.15820312 0.0546875 C7.50206427 0.10129184 10.84438632 0.16670249 14.1875 0.25 C14.1875 0.58 14.1875 0.91 14.1875 1.25 C12.2075 1.58 10.2275 1.91 8.1875 2.25 C8.6825 3.735 8.6825 3.735 9.1875 5.25 C5.35703282 6.52682239 3.95564993 5.52438647 0.1875 4.25 C-7.69622719 3.40880826 -14.18701892 3.72759525 -20.8125 8.25 C-21.699375 8.78625 -22.58625 9.3225 -23.5 9.875 C-29.00199695 15.52569957 -31.13740381 21.46334015 -31.375 29.3125 C-31.14272978 35.4178887 -29.99730085 40.04964336 -26.8125 45.25 C-26.27625 46.1575 -25.74 47.065 -25.1875 48 C-17.96694215 54.84052849 -10.9062853 55.73974528 -1.35083008 55.50512695 C0.49600479 55.43763327 2.34194536 55.34634566 4.1875 55.25 C1.59823669 57.83926331 0.16044721 57.62398043 -3.4375 57.875 C-4.44039062 57.94976562 -5.44328125 58.02453125 -6.4765625 58.1015625 C-7.24742188 58.15054688 -8.01828125 58.19953125 -8.8125 58.25 C-8.8125 58.91 -8.8125 59.57 -8.8125 60.25 C-6.5025 60.58 -4.1925 60.91 -1.8125 61.25 C-1.8125 61.58 -1.8125 61.91 -1.8125 62.25 C-13.27577199 63.41972163 -24.2412137 58.42773221 -33.07421875 51.4921875 C-33.97785156 50.75226563 -34.88148437 50.01234375 -35.8125 49.25 C-37.94737758 47.54833511 -40.09541971 45.8641321 -42.25 44.1875 C-42.79237305 43.76500977 -43.33474609 43.34251953 -43.89355469 42.90722656 C-51.23445718 37.27818235 -59.17383175 32.58766728 -67.8125 29.25 C-51.01166101 10.76907711 -24.62261457 -0.6326499 0 0 Z " fill="#F5F9FA" transform="translate(89.8125,67.75)"/>
<path d="M0 0 C0.66 2.64 1.32 5.28 2 8 C4.97 8 7.94 8 11 8 C11.33208685 15.30591074 10.86087781 19.6027076 6 25.375 C1.39374887 27.8700527 -2.88709025 27.98606117 -8 27 C-12.02975192 24.75263835 -14.53551324 22.39346027 -16 18 C-16.11792999 16.35720783 -16.17511674 14.70947306 -16.1875 13.0625 C-16.20167969 12.20785156 -16.21585937 11.35320312 -16.23046875 10.47265625 C-15.84131631 6.29751225 -14.54117095 4.46386081 -11.375 1.75 C-7.12851262 -0.45188235 -4.7135966 -0.32507563 0 0 Z " fill="#1C7192" transform="translate(87,84)"/>
<path d="M0 0 C5.29839483 3.25472825 9.91913106 6.94713483 12.4765625 12.67578125 C12.6209375 13.50078125 12.7653125 14.32578125 12.9140625 15.17578125 C11.5940625 14.84578125 10.2740625 14.51578125 8.9140625 14.17578125 C9.1615625 15.32046875 9.1615625 15.32046875 9.4140625 16.48828125 C10.07968399 21.39723974 9.99326328 26.23013239 9.9140625 31.17578125 C9.5840625 31.17578125 9.2540625 31.17578125 8.9140625 31.17578125 C8.4190625 27.21578125 8.4190625 27.21578125 7.9140625 23.17578125 C6.9240625 23.17578125 5.9340625 23.17578125 4.9140625 23.17578125 C4.4190625 21.69078125 4.4190625 21.69078125 3.9140625 20.17578125 C3.2540625 20.83578125 2.5940625 21.49578125 1.9140625 22.17578125 C1.9140625 21.18578125 1.9140625 20.19578125 1.9140625 19.17578125 C-1.0559375 19.50578125 -4.0259375 19.83578125 -7.0859375 20.17578125 C-9.0859375 17.17578125 -9.0859375 17.17578125 -8.8359375 14.17578125 C-8.0859375 11.17578125 -8.0859375 11.17578125 -6.0859375 8.17578125 C-7.0346875 8.19640625 -7.9834375 8.21703125 -8.9609375 8.23828125 C-12.0859375 8.17578125 -12.0859375 8.17578125 -14.0859375 7.17578125 C-14.4159375 7.83578125 -14.7459375 8.49578125 -15.0859375 9.17578125 C-15.0859375 8.51578125 -15.0859375 7.85578125 -15.0859375 7.17578125 C-16.7359375 7.50578125 -18.3859375 7.83578125 -20.0859375 8.17578125 C-20.1890625 7.53640625 -20.2921875 6.89703125 -20.3984375 6.23828125 C-20.6253125 5.55765625 -20.8521875 4.87703125 -21.0859375 4.17578125 C-22.0759375 3.84578125 -23.0659375 3.51578125 -24.0859375 3.17578125 C-24.4159375 4.16578125 -24.7459375 5.15578125 -25.0859375 6.17578125 C-26.4059375 5.51578125 -27.7259375 4.85578125 -29.0859375 4.17578125 C-21.01238701 -2.74440488 -9.94057655 -4.46268437 0 0 Z " fill="#42C4DC" transform="translate(96.0859375,72.82421875)"/>
<path d="M0 0 C6.42101925 1.70579993 12.81226721 3.50628481 19.1875 5.375 C20.28034302 5.69428467 20.28034302 5.69428467 21.39526367 6.02001953 C24.91940508 7.05828254 28.42606288 8.1268821 31.91015625 9.29296875 C49.20267223 15.04979692 66.88346545 17.52109922 85 19 C85 19.33 85 19.66 85 20 C67.42893113 20.33294708 50.3079467 20.45086127 33 17 C31.84757812 16.77473633 30.69515625 16.54947266 29.5078125 16.31738281 C25.74946616 15.57020637 21.99896529 14.79284291 18.25 14 C17.05149414 13.7510498 15.85298828 13.50209961 14.61816406 13.24560547 C12.95865723 12.87653076 12.95865723 12.87653076 11.265625 12.5 C10.27336914 12.2834375 9.28111328 12.066875 8.25878906 11.84375 C7.14068848 11.42609375 7.14068848 11.42609375 6 11 C5.67 10.01 5.34 9.02 5 8 C4.3915625 8.01160156 3.783125 8.02320312 3.15625 8.03515625 C-5.26338399 8.12182895 -13.60668764 7.5897434 -22 7 C-22 6.67 -22 6.34 -22 6 C-19.03 6 -16.06 6 -13 6 C-13 5.34 -13 4.68 -13 4 C-10.36 4 -7.72 4 -5 4 C-5 4.33 -5 4.66 -5 5 C-2.03 5 0.94 5 4 5 C4 4.34 4 3.68 4 3 C2.68 2.67 1.36 2.34 0 2 C0 1.34 0 0.68 0 0 Z " fill="#1D6F92" transform="translate(102,59)"/>
<path d="M0 0 C4.21422242 2.88341534 5.76075855 5.04303419 7 10 C5.68 9.67 4.36 9.34 3 9 C3.2475 10.1446875 3.2475 10.1446875 3.5 11.3125 C4.16562149 16.22145849 4.07920078 21.05435114 4 26 C3.67 26 3.34 26 3 26 C2.67 23.36 2.34 20.72 2 18 C1.01 18 0.02 18 -1 18 C-1.33 17.01 -1.66 16.02 -2 15 C-2.66 15.66 -3.32 16.32 -4 17 C-4 16.01 -4 15.02 -4 14 C-8.455 14.495 -8.455 14.495 -13 15 C-15 12 -15 12 -14.75 9 C-14 6 -14 6 -12 3 C-9.2539049 2.86923357 -6.72350533 2.85438684 -4 3 C-3.01 3 -2.02 3 -1 3 C-1.33 5.64 -1.66 8.28 -2 11 C-1.855625 10.113125 -1.71125 9.22625 -1.5625 8.3125 C-1.08980022 5.52882354 -0.56929815 2.76516243 0 0 Z " fill="#3EC3DD" transform="translate(102,78)"/>
<path d="M0 0 C6.57031362 0.42154667 12.66239425 1.58456475 19.02734375 3.2421875 C30.17497935 6.0840289 41.57485878 6.95570348 53 8 C53 8.33 53 8.66 53 9 C35.36335568 9.33418965 18.40876003 9.26050355 1 6 C1 5.67 1 5.34 1 5 C2.65 4.67 4.3 4.34 6 4 C4.68 3.67 3.36 3.34 2 3 C2 2.34 2 1.68 2 1 C1.34 0.67 0.68 0.34 0 0 Z " fill="#5391AB" transform="translate(134,70)"/>
<path d="M0 0 C1.39972508 0.01508394 2.799466 0.02876575 4.19921875 0.04101562 C7.59155844 0.07610879 10.98306775 0.12527735 14.375 0.1875 C14.375 0.5175 14.375 0.8475 14.375 1.1875 C12.395 1.5175 10.415 1.8475 8.375 2.1875 C8.87 3.6725 8.87 3.6725 9.375 5.1875 C5.54453282 6.46432239 4.14314993 5.46188647 0.375 4.1875 C-9.52820081 3.13083093 -15.43233598 4.72572398 -23.625 10.1875 C-25.0856285 7.54011084 -25.625 6.29301666 -25.625 3.1875 C-17.16019465 -0.16940716 -8.95505974 -0.16930493 0 0 Z " fill="#EBF4F6" transform="translate(89.625,67.8125)"/>
<path d="M0 0 C1.32 0 2.64 0 4 0 C4 0.66 4 1.32 4 2 C5.98 1.67 7.96 1.34 10 1 C10.33 1.99 10.66 2.98 11 4 C5.20729658 8.49858883 0.1244997 11.72301021 -7.06640625 13.39453125 C-7.70449219 13.59433594 -8.34257812 13.79414062 -9 14 C-9.33 14.66 -9.66 15.32 -10 16 C-10.66 16 -11.32 16 -12 16 C-12 13 -12 13 -10.6875 11.3125 C-9 10 -9 10 -6 10 C-5.7834375 8.824375 -5.7834375 8.824375 -5.5625 7.625 C-5 5 -5 5 -4 3 C-3.01 2.67 -2.02 2.34 -1 2 C-0.67 1.34 -0.34 0.68 0 0 Z " fill="#1B6E8F" transform="translate(30,79)"/>
<path d="M0 0 C0.86963379 0.15847412 1.73926758 0.31694824 2.63525391 0.48022461 C5.73444262 0.95897753 8.70523819 1.19858423 11.8359375 1.31640625 C12.89941406 1.35830078 13.96289062 1.40019531 15.05859375 1.44335938 C16.15300781 1.48267578 17.24742188 1.52199219 18.375 1.5625 C20.05142578 1.62727539 20.05142578 1.62727539 21.76171875 1.69335938 C24.50770199 1.79897411 27.25376881 1.9010797 30 2 C29.09765625 4.4765625 29.09765625 4.4765625 27 7 C23.80766283 7.68546638 20.68600136 7.51425579 17.4375 7.375 C16.56158203 7.36082031 15.68566406 7.34664062 14.78320312 7.33203125 C8.36773608 7.18386804 8.36773608 7.18386804 6 6 C6 5.34 6 4.68 6 4 C3.36 3.67 0.72 3.34 -2 3 C-1.34 2.01 -0.68 1.02 0 0 Z " fill="#1F7294" transform="translate(66,129)"/>
<path d="M0 0 C0.76441406 0.27328125 1.52882813 0.5465625 2.31640625 0.828125 C4.4375 1.75 4.4375 1.75 7.4375 3.75 C7.625 6.875 7.625 6.875 7.4375 9.75 C6.1175 9.75 4.7975 9.75 3.4375 9.75 C3.1075 10.41 2.7775 11.07 2.4375 11.75 C-0.5625 9.75 -0.5625 9.75 -1.4375 7.75 C-2.962242 5.03934755 -4.73055452 4.8392098 -7.5625 3.75 C-7.8925 2.76 -8.2225 1.77 -8.5625 0.75 C-5.22772836 -1.34657625 -3.6618815 -1.36313694 0 0 Z " fill="#197092" transform="translate(34.5625,103.25)"/>
<path d="M0 0 C5.45454545 0.45454545 5.45454545 0.45454545 8 3 C8.36023622 5.80984248 8.38332602 7.38241919 6.875 9.8125 C4.14012639 11.54458662 2.16259871 11.40373601 -1 11 C-3 8 -3 8 -2.75 4.9375 C-2 2 -2 2 0 0 Z " fill="#F5FBFB" transform="translate(90,82)"/>
<path d="M0 0 C9.38483109 2.49316247 18.69140099 5.23906735 28 8 C26.02 8.99 26.02 8.99 24 10 C24 9.34 24 8.68 24 8 C23.01 8.33 22.02 8.66 21 9 C21 8.34 21 7.68 21 7 C19.68 7.33 18.36 7.66 17 8 C17 7.34 17 6.68 17 6 C14.03 6.66 11.06 7.32 8 8 C8 7.34 8 6.68 8 6 C6.68 5.67 5.36 5.34 4 5 C4 4.34 4 3.68 4 3 C2.68 2.67 1.36 2.34 0 2 C0 1.34 0 0.68 0 0 Z " fill="#337D99" transform="translate(102,59)"/>
<path d="M0 0 C1.875 1.4375 1.875 1.4375 3 3 C3 3.66 3 4.32 3 5 C3.99 5 4.98 5 6 5 C8.1875 6.375 8.1875 6.375 10 8 C10 8.66 10 9.32 10 10 C10.33 10.66 10.66 11.32 11 12 C7.66924047 10.42103145 4.60514411 8.54586815 1.5 6.5625 C0.09234375 5.66724609 0.09234375 5.66724609 -1.34375 4.75390625 C-3.6322267 3.24283855 -5.82932625 1.67408094 -8 0 C-5.06317146 -1.46841427 -3.13175678 -0.76696084 0 0 Z " fill="#297897" transform="translate(32,108)"/>
<path d="M0 0 C5.94 0 11.88 0 18 0 C15.41073669 2.58926331 13.97294721 2.37398043 10.375 2.625 C9.37210938 2.69976562 8.36921875 2.77453125 7.3359375 2.8515625 C6.56507812 2.90054688 5.79421875 2.94953125 5 3 C5 3.66 5 4.32 5 5 C7.31 5.33 9.62 5.66 12 6 C12 6.33 12 6.66 12 7 C5.42684522 7.36517527 0.20514474 6.13619737 -6 4 C-5.38125 3.855625 -4.7625 3.71125 -4.125 3.5625 C-1.96741678 3.06847775 -1.96741678 3.06847775 0 2 C0 1.34 0 0.68 0 0 Z " fill="#D1E9F0" transform="translate(76,123)"/>
<path d="M0 0 C0.66 0 1.32 0 2 0 C2.6053938 9.33651766 2.13668843 16.03813293 -3 24 C-3.33 24 -3.66 24 -4 24 C-4 21.36 -4 18.72 -4 16 C-2.68 15.34 -1.36 14.68 0 14 C0 9.38 0 4.76 0 0 Z " fill="#4BC7DB" transform="translate(109,90)"/>
<path d="M0 0 C16.8929385 -0.92255125 16.8929385 -0.92255125 24 5 C21.27208027 6.36395986 19.9401354 5.69853765 16.9921875 5.00390625 C15.51298828 4.66069336 15.51298828 4.66069336 14.00390625 4.31054688 C12.45509766 3.94026367 12.45509766 3.94026367 10.875 3.5625 C9.83472656 3.31951172 8.79445313 3.07652344 7.72265625 2.82617188 C5.1469266 2.22359292 2.57287788 1.61462141 0 1 C0 0.67 0 0.34 0 0 Z " fill="#39819B" transform="translate(108,69)"/>
<path d="M0 0 C-2.05927956 0.98592155 -4.12256688 1.96347494 -6.1875 2.9375 C-7.33605469 3.48277344 -8.48460938 4.02804688 -9.66796875 4.58984375 C-12.51466736 5.79460131 -14.96027845 6.54776271 -18 7 C-18 6.01 -18 5.02 -18 4 C-18.66 3.67 -19.32 3.34 -20 3 C-17.23132003 2.30259196 -14.46063138 1.61677147 -11.6875 0.9375 C-10.90181641 0.73833984 -10.11613281 0.53917969 -9.30664062 0.33398438 C-8.54931641 0.15029297 -7.79199219 -0.03339844 -7.01171875 -0.22265625 C-6.31522217 -0.39547119 -5.61872559 -0.56828613 -4.90112305 -0.74633789 C-3 -1 -3 -1 0 0 Z " fill="#4D8DA6" transform="translate(121,126)"/>
<path d="M0 0 C5.94 0 11.88 0 18 0 C17.67 1.32 17.34 2.64 17 4 C14.36 4.33 11.72 4.66 9 5 C9.33 4.01 9.66 3.02 10 2 C6.7 1.67 3.4 1.34 0 1 C0 0.67 0 0.34 0 0 Z " fill="#377F9A" transform="translate(85,130)"/>
<path d="M0 0 C-0.66 1.32 -1.32 2.64 -2 4 C-1.01 4.99 -0.02 5.98 1 7 C-1.5 6 -1.5 6 -4 5 C-4.9075 4.690625 -5.815 4.38125 -6.75 4.0625 C-7.4925 3.711875 -8.235 3.36125 -9 3 C-9.33 2.01 -9.66 1.02 -10 0 C-6.22996568 -2.61002376 -4.07631429 -1.66758312 0 0 Z " fill="#196E8E" transform="translate(36,104)"/>
<path d="M0 0 C0 0.99 0 1.98 0 3 C-5.32212148 3.79265639 -10.6496441 4.42978066 -16 5 C-16 4.01 -16 3.02 -16 2 C-10.73571362 0.84843735 -5.39626563 0 0 0 Z " fill="#F2F9F7" transform="translate(128,122)"/>
<path d="M0 0 C1.88330078 -0.0546875 1.88330078 -0.0546875 4.79345703 0.1015625 C5.45345703 0.7615625 6.11345703 1.4215625 6.79345703 2.1015625 C2.95799663 3.02244507 -0.44755558 3.15491662 -4.38232422 2.98046875 C-6.11772461 2.90795898 -6.11772461 2.90795898 -7.88818359 2.83398438 C-9.68545898 2.74987305 -9.68545898 2.74987305 -11.51904297 2.6640625 C-12.7365625 2.61185547 -13.95408203 2.55964844 -15.20849609 2.50585938 C-18.20812276 2.37646371 -21.20739303 2.24150802 -24.20654297 2.1015625 C-24.20654297 1.7715625 -24.20654297 1.4415625 -24.20654297 1.1015625 C-20.68583327 0.93221533 -17.16495849 0.76657057 -13.64404297 0.6015625 C-12.65339844 0.55386719 -11.66275391 0.50617188 -10.64208984 0.45703125 C-7.0951829 0.29205883 -3.54693606 0.16325796 0 0 Z " fill="#498EA7" transform="translate(102.20654296875,65.8984375)"/>
<path d="M0 0 C3.3 0.66 6.6 1.32 10 2 C10 3.32 10 4.64 10 6 C4.06 5.01 4.06 5.01 -2 4 C-1.34 2.68 -0.68 1.36 0 0 Z " fill="#347F9A" transform="translate(6,99)"/>
<path d="M0 0 C0.9590625 -0.02578125 1.918125 -0.0515625 2.90625 -0.078125 C5.86443253 0.29610291 6.70113073 0.94064081 8.5 3.25 C6.22942623 3.30398987 3.95848712 3.34278742 1.6875 3.375 C-0.20935547 3.40980469 -0.20935547 3.40980469 -2.14453125 3.4453125 C-5.5 3.25 -5.5 3.25 -8.5 1.25 C-5.45059327 0.23353109 -3.19630097 0.05155324 0 0 Z " fill="#DEEDF3" transform="translate(79.5,67.75)"/>
<path d="M0 0 C-0.66 2.31 -1.32 4.62 -2 7 C-2.99 7 -3.98 7 -5 7 C-5 7.66 -5 8.32 -5 9 C-5.99 8.67 -6.98 8.34 -8 8 C-10.16715557 8.87483915 -10.16715557 8.87483915 -12 10 C-10.33333333 8.33333333 -8.66666667 6.66666667 -7 5 C-6.113125 4.071875 -5.22625 3.14375 -4.3125 2.1875 C-2 0 -2 0 0 0 Z " fill="#357F9B" transform="translate(26,82)"/>
<path d="M0 0 C0.66 0.33 1.32 0.66 2 1 C1.67 1.99 1.34 2.98 1 4 C0.77820215 5.89212737 0.59385985 7.78884472 0.4375 9.6875 C0.35371094 10.68136719 0.26992187 11.67523438 0.18359375 12.69921875 C0.12300781 13.45847656 0.06242187 14.21773437 0 15 C-0.33 14.01 -0.66 13.02 -1 12 C-1.66 11.67 -2.32 11.34 -3 11 C-2.67 10.67 -2.34 10.34 -2 10 C-1.95936168 8.33382885 -1.957279 6.66611905 -2 5 C-4.31 4.01 -6.62 3.02 -9 2 C-9 1.67 -9 1.34 -9 1 C-7.700625 1.020625 -6.40125 1.04125 -5.0625 1.0625 C-3.70834367 1.08399454 -2.35243917 1.07148199 -1 1 C-0.67 0.67 -0.34 0.34 0 0 Z " fill="#51C5D9" transform="translate(99,80)"/>
<path d="M0 0 C0 0.33 0 0.66 0 1 C-1.04800781 1.03738281 -2.09601563 1.07476562 -3.17578125 1.11328125 C-4.55472305 1.17894515 -5.93362771 1.24539235 -7.3125 1.3125 C-8.34793945 1.34633789 -8.34793945 1.34633789 -9.40429688 1.38085938 C-13.49206734 1.5836997 -13.49206734 1.5836997 -16.98046875 3.54296875 C-17.31691406 4.02378906 -17.65335937 4.50460938 -18 5 C-19.98 4.34 -21.96 3.68 -24 3 C-24 2.67 -24 2.34 -24 2 C-16.09388645 -0.63537118 -8.23134837 -0.17981101 0 0 Z " fill="#4388A4" transform="translate(90,56)"/>
<path d="M0 0 C2.8125 0.3125 2.8125 0.3125 6 1 C6.94875 1.185625 7.8975 1.37125 8.875 1.5625 C9.57625 1.706875 10.2775 1.85125 11 2 C11 2.66 11 3.32 11 4 C9.39620659 4.05416188 7.79188594 4.09286638 6.1875 4.125 C5.29417969 4.14820313 4.40085937 4.17140625 3.48046875 4.1953125 C1 4 1 4 -2 2 C-1.34 1.34 -0.68 0.68 0 0 Z " fill="#196D8E" transform="translate(66,129)"/>
<path d="M0 0 C0.66 0 1.32 0 2 0 C2 0.66 2 1.32 2 2 C3.32 2 4.64 2 6 2 C6.33 3.32 6.66 4.64 7 6 C2.375 8.125 2.375 8.125 -1 7 C-0.34 6.34 0.32 5.68 1 5 C0.67958603 2.39719432 0.67958603 2.39719432 0 0 Z " fill="#156E8E" transform="translate(44,69)"/>
<path d="M0 0 C0.66 0 1.32 0 2 0 C2.33 1.65 2.66 3.3 3 5 C-0.32534757 6.10844919 -2.62182575 5.84454356 -6 5 C-5.195625 4.360625 -4.39125 3.72125 -3.5625 3.0625 C-1.7249496 1.59396498 -1.7249496 1.59396498 0 0 Z " fill="#317B98" transform="translate(42,69)"/>
<path d="M0 0 C-1.98 0.99 -1.98 0.99 -4 2 C-4 2.99 -4 3.98 -4 5 C-6.64 4.67 -9.28 4.34 -12 4 C-9.94577945 1.94577945 -8.66990976 1.31862408 -6 0.3125 C-5.29875 0.04050781 -4.5975 -0.23148438 -3.875 -0.51171875 C-2 -1 -2 -1 0 0 Z " fill="#E4F0F5" transform="translate(114,130)"/>
<path d="M0 0 C0.66 0.33 1.32 0.66 2 1 C2 1.99 2 2.98 2 4 C1.01 4.66 0.02 5.32 -1 6 C-1.33 5.67 -1.66 5.34 -2 5 C-3.32 6.32 -4.64 7.64 -6 9 C-4.83857315 4.64464931 -3.92300495 2.35380297 0 0 Z " fill="#207FA0" transform="translate(77,85)"/>
<path d="M0 0 C4.21422242 2.88341534 5.76075855 5.04303419 7 10 C5.125 9.75 5.125 9.75 3 9 C1.09987871 6.19982126 0.55106513 3.3063908 0 0 Z " fill="#48C7DA" transform="translate(102,78)"/>
<path d="M0 0 C2.91517292 1.07401108 4.77810176 1.77810176 7 4 C4.69 4.66 2.38 5.32 0 6 C-0.66 5.34 -1.32 4.68 -2 4 C-1.34 4 -0.68 4 0 4 C0 2.68 0 1.36 0 0 Z " fill="#E5EEF2" transform="translate(56,129)"/>
<path d="M0 0 C2.03144641 0.93446535 4.03533587 1.93224776 6 3 C5.01 3.66 4.02 4.32 3 5 C3 4.34 3 3.68 3 3 C2.34 3 1.68 3 1 3 C1.33 3.99 1.66 4.98 2 6 C-0.475 5.01 -0.475 5.01 -3 4 C-2.67 3.01 -2.34 2.02 -2 1 C-1.34 0.67 -0.68 0.34 0 0 Z " fill="#2A7795" transform="translate(36,104)"/>
<path d="M0 0 C2.31 0.33 4.62 0.66 7 1 C6.67 1.99 6.34 2.98 6 4 C4.02 4 2.04 4 0 4 C0 2.68 0 1.36 0 0 Z " fill="#E6F0F1" transform="translate(89,89)"/>
<path d="M0 0 C0 0.66 0 1.32 0 2 C-0.66 2 -1.32 2 -2 2 C-2 2.99 -2 3.98 -2 5 C-3.65 5.66 -5.3 6.32 -7 7 C-7.33 6.01 -7.66 5.02 -8 4 C-2.25 0 -2.25 0 0 0 Z " fill="#DCEBED" transform="translate(50,78)"/>
<path d="M0 0 C1.99963028 0.03845443 4.00051633 0.04544281 6 0 C5.67 0.66 5.34 1.32 5 2 C3.58376784 2.05447047 2.16691809 2.09300508 0.75 2.125 C-0.03890625 2.14820312 -0.8278125 2.17140625 -1.640625 2.1953125 C-4.20731941 1.9828378 -5.7916067 1.28654105 -8 0 C-4.86100848 -1.00896156 -3.14038951 -0.83127958 0 0 Z " fill="#1E6E90" transform="translate(152,75)"/>
<path d="M0 0 C1.62580966 0.11398665 3.25067157 0.24155659 4.875 0.375 C5.77992188 0.44460937 6.68484375 0.51421875 7.6171875 0.5859375 C10 1 10 1 12 3 C8.7 3 5.4 3 2 3 C2 2.34 2 1.68 2 1 C1.34 0.67 0.68 0.34 0 0 Z " fill="#317B95" transform="translate(134,70)"/>
<path d="M0 0 C3.3 0 6.6 0 10 0 C10.33 0.99 10.66 1.98 11 3 C7.59068103 4.13643966 6.99664544 3.86747764 3.8125 2.5625 C3.09707031 2.27503906 2.38164063 1.98757812 1.64453125 1.69140625 C1.10183594 1.46324219 0.55914062 1.23507813 0 1 C0 0.67 0 0.34 0 0 Z " fill="#E6F8FA" transform="translate(88,70)"/>
<path d="M0 0 C0.598125 0.165 1.19625 0.33 1.8125 0.5 C4.11344336 1.1114124 4.11344336 1.1114124 7 1 C9 3 9 3 9 5 C9.33 5.66 9.66 6.32 10 7 C6.42032008 5.34784004 3.22017048 3.26875648 0 1 C0 0.67 0 0.34 0 0 Z " fill="#468AA3" transform="translate(33,113)"/>
<path d="M0 0 C0 0.99 0 1.98 0 3 C-2.31 3.33 -4.62 3.66 -7 4 C-7.33 3.34 -7.66 2.68 -8 2 C-5.09399739 0.74335022 -3.20395416 0 0 0 Z " fill="#D6E5E9" transform="translate(128,122)"/>
<path d="M0 0 C0.66 0.66 1.32 1.32 2 2 C1.96712417 4.72869407 1.43602229 7.2966618 1 10 C0.01 9.34 -0.98 8.68 -2 8 C-1.125 1.125 -1.125 1.125 0 0 Z " fill="#54C8DC" transform="translate(60,86)"/>
<path d="M0 0 C-2.12780579 2.34058637 -4.11562221 3.70700306 -7 5 C-7.33 3.68 -7.66 2.36 -8 1 C-5.07175348 0.02391783 -3.04386724 -0.08226668 0 0 Z " fill="#2C7898" transform="translate(40,83)"/>
<path d="M0 0 C1.98 0 3.96 0 6 0 C6.33 0.99 6.66 1.98 7 3 C3.37673261 4.2077558 2.35853631 3.54311128 -1 2 C-0.67 1.34 -0.34 0.68 0 0 Z " fill="#FBFCFA" transform="translate(70,123)"/>
<path d="M0 0 C3.63 0 7.26 0 11 0 C11 0.33 11 0.66 11 1 C7.7 1.66 4.4 2.32 1 3 C0.67 2.01 0.34 1.02 0 0 Z " fill="#DFEBEF" transform="translate(60,57)"/>
<path d="M0 0 C1.32 0.33 2.64 0.66 4 1 C3.67 1.66 3.34 2.32 3 3 C3.33 3.99 3.66 4.98 4 6 C-0.875 4.25 -0.875 4.25 -2 2 C-1.34 2 -0.68 2 0 2 C0 1.34 0 0.68 0 0 Z " fill="#377D99" transform="translate(49,121)"/>
<path d="M0 0 C0.66 0 1.32 0 2 0 C2 0.66 2 1.32 2 2 C2.99 2 3.98 2 5 2 C5.33 3.32 5.66 4.64 6 6 C6.66 6 7.32 6 8 6 C7.67 6.66 7.34 7.32 7 8 C1.125 3.375 1.125 3.375 0 0 Z " fill="#5ECCDA" transform="translate(62,112)"/>
<path d="M0 0 C0.99 0.33 1.98 0.66 3 1 C3 1.99 3 2.98 3 4 C0.69 4 -1.62 4 -4 4 C-2.68 2.68 -1.36 1.36 0 0 Z " fill="#2F7B9B" transform="translate(35,74)"/>
<path d="M0 0 C2.91517292 1.07401108 4.77810176 1.77810176 7 4 C4.69 4 2.38 4 0 4 C-0.33 3.34 -0.66 2.68 -1 2 C-0.67 1.34 -0.34 0.68 0 0 Z " fill="#307997" transform="translate(27,99)"/>
<path d="M0 0 C0.66 0.66 1.32 1.32 2 2 C-0.3125 4.0625 -0.3125 4.0625 -3 6 C-3.99 5.67 -4.98 5.34 -6 5 C-4.6875 3.5 -4.6875 3.5 -3 2 C-2.01 2 -1.02 2 0 2 C0 1.34 0 0.68 0 0 Z " fill="#35819F" transform="translate(28,89)"/>
<path d="M0 0 C0.66 0.33 1.32 0.66 2 1 C1 4 1 4 -1.4375 5.25 C-4 6 -4 6 -6 5 C-4.02 3.35 -2.04 1.7 0 0 Z " fill="#DFEBEE" transform="translate(32,88)"/>
<path d="M0 0 C2.125 0.375 2.125 0.375 4 1 C3.01 1 2.02 1 1 1 C0.71125 1.78375 0.4225 2.5675 0.125 3.375 C-1 6 -1 6 -3 8 C-2.25 2.25 -2.25 2.25 0 0 Z " fill="#D2EDF6" transform="translate(90,82)"/>
<path d="M0 0 C0 0.66 0 1.32 0 2 C-0.99 2 -1.98 2 -3 2 C-2.67 3.32 -2.34 4.64 -2 6 C-2.99 6 -3.98 6 -5 6 C-5 5.34 -5 4.68 -5 4 C-5.66 3.67 -6.32 3.34 -7 3 C-2.25 0 -2.25 0 0 0 Z " fill="#40849F" transform="translate(51,65)"/>
</svg>
